<?xml version="1.0" encoding="UTF-8" standalone="no"?><!-- Generator: Gravit.io --><svg xmlns="http://www.w3.org/2000/svg" xmlns:xlink="http://www.w3.org/1999/xlink" style="isolation:isolate" viewBox="0 0 876.667 1308" width="876.667pt" height="1308pt"><defs><clipPath id="_clipPath_VRLaCilJ58YiW4y5l3QciU6OAbiUerBP"><rect width="876.667" height="1308"/></clipPath></defs><g clip-path="url(#_clipPath_VRLaCilJ58YiW4y5l3QciU6OAbiUerBP)"><g><path d=" M 438.333 763.276 C 263.977 763.276 122.633 622.061 122.633 447.865 C 122.633 273.669 263.977 132.456 438.333 132.456 C 612.689 132.456 754.033 273.669 754.033 447.865 C 754.033 622.061 612.689 763.276 438.333 763.276 Z  M 876.666 437.932 C 876.666 196.068 680.418 0 438.333 0 C 196.248 0 0 196.068 0 437.932 C 0 505.848 15.482 570.146 43.105 627.509 L 43.105 627.509 L 43.106 627.512 C 52.904 647.857 64.241 667.32 76.945 685.772 L 438.333 1308 L 814.845 662.201 C 816.42 659.565 817.965 656.91 819.486 654.24 L 819.49 654.232 L 819.49 654.232 C 830.373 635.126 839.884 615.14 847.834 594.377 C 866.444 545.789 876.666 493.057 876.666 437.932 Z " fill="rgb(216,131,43)"/></g><g><path d=" M 350.934 464.328 L 231.537 464.328 L 231.537 343.357 L 350.934 296.904 L 350.934 464.328 Z " fill="rgb(240,134,42)"/><path d=" M 331.937 464.328 L 350.934 464.328 L 350.934 296.904 L 258.105 333.02 L 331.937 464.328 Z " fill="rgb(243,147,41)"/><path d=" M 525.732 464.328 L 645.129 464.328 L 645.129 343.357 L 525.732 296.904 L 525.732 464.328 Z " fill="rgb(240,134,42)"/><path d=" M 525.732 296.904 L 525.732 464.328 L 603.013 464.328 L 568.584 313.576 L 525.732 296.904 Z " fill="rgb(243,147,41)"/><path d=" M 504.718 464.328 L 372.903 464.328 L 372.903 264 L 504.718 264 L 504.718 464.328 Z " fill="rgb(240,134,42)"/><path d=" M 372.903 264 L 372.903 464.328 L 450.273 464.328 L 411.265 264 L 372.903 264 Z " fill="rgb(239,123,43)"/><path d=" M 504.718 264 L 450.273 464.328 L 504.718 464.328 L 504.718 264 Z " fill="rgb(243,147,41)"/><path d=" M 350.934 296.904 L 350.934 328.097 L 291.236 391.942 L 258.105 333.02 L 350.934 296.904 Z " fill="rgb(239,123,43)"/><path d=" M 586.794 393.308 L 525.732 464.328 L 645.129 464.328 L 645.129 408.855 L 586.794 393.308 Z " fill="rgb(239,123,43)"/><path d=" M 486.067 445.382 L 468.924 445.382 L 468.924 422.155 L 486.067 422.155 L 486.067 445.382 Z " fill="rgb(254,254,254)"/><path d=" M 458.844 346.244 L 441.701 346.244 L 441.701 323.017 L 458.844 323.017 L 458.844 346.244 Z " fill="rgb(254,254,254)"/><path d=" M 426.317 387.391 L 409.175 387.391 L 409.175 364.164 L 426.317 364.164 L 426.317 387.391 Z " fill="rgb(254,254,254)"/><path d=" M 332.578 445.382 L 315.435 445.382 L 315.435 422.155 L 332.578 422.155 L 332.578 445.382 Z " fill="rgb(254,254,254)"/><path d=" M 559.87 357.857 L 542.728 357.857 L 542.728 334.63 L 559.87 334.63 L 559.87 357.857 Z " fill="rgb(254,254,254)"/><path d=" M 409.175 307.209 L 392.032 307.209 L 392.032 283.983 L 409.175 283.983 L 409.175 307.209 Z " fill="rgb(254,254,254)"/><path d=" M 438.526 527.793 L 372.833 558.494 L 376.535 566.414 L 442.228 535.712 L 438.526 527.793 Z " fill="rgb(151,151,150)"/><path d=" M 306.376 562.864 L 240.683 532.162 L 244.384 524.242 L 310.077 554.944 L 306.376 562.864 Z " fill="rgb(151,151,150)"/><path d=" M 634.008 531.217 L 568.315 500.516 L 572.016 492.596 L 637.71 523.297 L 634.008 531.217 Z " fill="rgb(151,151,150)"/><path d=" M 188.333 583.771 L 209.935 583.771 L 209.935 352.54 L 188.333 360.334 L 188.333 583.771 Z " fill="rgb(240,134,42)"/><path d=" M 688.333 583.771 L 666.731 583.771 L 666.731 352.332 L 688.333 360.133 L 688.333 583.771 Z " fill="rgb(240,134,42)"/><path d=" M 209.935 463.887 L 188.333 436.072 L 188.333 583.771 L 209.935 583.771 L 209.935 463.887 Z " fill="rgb(151,151,150)"/><path d=" M 688.333 433.768 L 666.731 466.716 L 666.731 583.771 L 688.333 583.771 L 688.333 433.768 Z " fill="rgb(151,151,150)"/><path d=" M 249.829 566.288 L 231.537 566.288 L 231.537 482.198 L 249.829 482.198 L 249.829 566.288 Z " fill="rgb(151,151,150)"/><path d=" M 341.724 554.644 L 341.724 572.936 L 231.537 572.936 L 231.537 554.644 L 341.724 554.644 Z " fill="rgb(151,151,150)"/><path d=" M 644.973 482.198 L 644.973 500.49 L 534.878 500.49 L 534.878 482.198 L 644.973 482.198 Z " fill="rgb(151,151,150)"/><path d=" M 644.973 547.995 L 644.973 566.288 L 525.732 566.288 L 525.732 547.995 L 644.973 547.995 Z " fill="rgb(151,151,150)"/><path d=" M 350.87 583.771 L 332.578 583.771 L 332.578 482.198 L 350.87 482.198 L 350.87 583.771 Z " fill="rgb(151,151,150)"/><path d=" M 644.973 547.995 L 626.68 547.995 L 626.68 482.198 L 644.973 482.198 L 644.973 547.995 Z " fill="rgb(151,151,150)"/><path d=" M 391.196 583.771 L 372.903 583.771 L 372.903 482.198 L 391.196 482.198 L 391.196 583.771 Z " fill="rgb(151,151,150)"/><path d=" M 422.176 511.005 L 410.174 525.14 L 475.457 583.202 L 504.718 583.202 L 422.176 511.005 Z " fill="rgb(151,151,150)"/><path d=" M 473.792 482.132 L 504.718 482.713 L 387.978 541.681 L 374.755 528.968 L 473.792 482.132 Z " fill="rgb(151,151,150)"/><path d=" M 544.024 583.771 L 525.732 583.771 L 525.732 482.198 L 544.024 482.198 L 544.024 583.771 Z " fill="rgb(151,151,150)"/><path d=" M 251.457 554.644 L 231.537 554.644 L 231.537 572.936 L 277.996 572.936 L 251.457 554.644 Z " fill="rgb(200,200,202)"/><path d=" M 447.774 511.477 L 504.718 482.713 L 473.792 482.132 L 430.71 502.507 L 447.774 511.477 Z " fill="rgb(200,200,202)"/><path d=" M 603.353 500.49 L 644.973 500.49 L 644.973 482.198 L 589.167 482.198 L 603.353 500.49 Z " fill="rgb(200,200,202)"/></g></g></svg>