<?xml version="1.0" encoding="UTF-8" standalone="no"?><!-- Generator: Gravit.io --><svg xmlns="http://www.w3.org/2000/svg" xmlns:xlink="http://www.w3.org/1999/xlink" style="isolation:isolate" viewBox="0 0 300 191.863" width="300pt" height="191.863pt"><clipPath id="_clipPath_f1d0hEVFJlHAcjZiMT3OiglEb5k5FqAW"><rect x="0" y="0" width="300" height="191.863" transform="matrix(1,0,0,1,0,0)" fill="rgb(255,255,255)"/></clipPath><g clip-path="url(#_clipPath_f1d0hEVFJlHAcjZiMT3OiglEb5k5FqAW)"><g><path d=" M 97.561 120.197 L 25.922 120.197 L 25.922 47.614 L 97.561 19.743 L 97.561 120.197 Z " fill="rgb(255,255,255)"/><path d=" M 86.162 120.197 L 97.561 120.197 L 97.561 19.743 L 41.863 41.412 L 86.162 120.197 Z " fill="rgb(255,255,255)"/><path d=" M 202.439 120.197 L 274.078 120.197 L 274.078 47.614 L 202.439 19.743 L 202.439 120.197 Z " fill="rgb(255,255,255)"/><path d=" M 202.439 19.743 L 202.439 120.197 L 248.808 120.197 L 228.15 29.746 L 202.439 19.743 Z " fill="rgb(255,255,255)"/><path d=" M 189.831 120.197 L 110.742 120.197 L 110.742 0 L 189.831 0 L 189.831 120.197 Z " fill="rgb(255,255,255)"/><path d=" M 110.742 0 L 110.742 120.197 L 157.164 120.197 L 133.76 0 L 110.742 0 Z " fill="rgb(255,255,255)"/><path d=" M 189.831 0 L 157.164 120.197 L 189.831 120.197 L 189.831 0 Z " fill="rgb(255,255,255)"/><path d=" M 97.561 19.743 L 97.561 38.458 L 61.742 76.765 L 41.863 41.412 L 97.561 19.743 Z " fill="rgb(255,255,255)"/><path d=" M 239.076 77.585 L 202.439 120.197 L 274.078 120.197 L 274.078 86.913 L 239.076 77.585 Z " fill="rgb(255,255,255)"/><path d=" M 178.64 108.829 L 168.355 108.829 L 168.355 94.893 L 178.64 94.893 L 178.64 108.829 Z " fill="rgb(216,131,43)"/><path d=" M 162.307 49.346 L 152.021 49.346 L 152.021 35.41 L 162.307 35.41 L 162.307 49.346 Z " fill="rgb(216,131,43)"/><path d=" M 142.791 74.034 L 132.505 74.034 L 132.505 60.098 L 142.791 60.098 L 142.791 74.034 Z " fill="rgb(216,131,43)"/><path d=" M 86.547 108.829 L 76.261 108.829 L 76.261 94.893 L 86.547 94.893 L 86.547 108.829 Z " fill="rgb(216,131,43)"/><path d=" M 222.922 56.314 L 212.637 56.314 L 212.637 42.378 L 222.922 42.378 L 222.922 56.314 Z " fill="rgb(216,131,43)"/><path d=" M 132.505 25.926 L 122.219 25.926 L 122.219 11.99 L 132.505 11.99 L 132.505 25.926 Z " fill="rgb(216,131,43)"/><path d=" M 150.116 158.276 L 110.7 176.696 L 112.921 181.449 L 152.337 163.027 L 150.116 158.276 Z " fill="rgb(255,255,255)"/><path d=" M 70.826 179.318 L 31.41 160.897 L 33.631 156.145 L 73.047 174.566 L 70.826 179.318 Z " fill="rgb(255,255,255)"/><path d=" M 267.405 160.33 L 227.989 141.909 L 230.21 137.157 L 269.626 155.578 L 267.405 160.33 Z " fill="rgb(255,255,255)"/><path d=" M 0 191.863 L 12.961 191.863 L 12.961 53.124 L 0 57.8 L 0 191.863 Z " fill="rgb(255,255,255)"/><path d=" M 300 191.863 L 287.039 191.863 L 287.039 52.999 L 300 57.68 L 300 191.863 Z " fill="rgb(255,255,255)"/><path d=" M 12.961 119.932 L 0 103.243 L 0 191.863 L 12.961 191.863 L 12.961 119.932 Z " fill="rgb(255,255,255)"/><path d=" M 300 101.861 L 287.039 121.63 L 287.039 191.863 L 300 191.863 L 300 101.861 Z " fill="rgb(255,255,255)"/><path d=" M 36.898 181.372 L 25.922 181.372 L 25.922 130.919 L 36.898 130.919 L 36.898 181.372 Z " fill="rgb(255,255,255)"/><path d=" M 92.035 174.386 L 92.035 185.361 L 25.922 185.361 L 25.922 174.386 L 92.035 174.386 Z " fill="rgb(255,255,255)"/><path d=" M 273.984 130.919 L 273.984 141.894 L 207.927 141.894 L 207.927 130.919 L 273.984 130.919 Z " fill="rgb(255,255,255)"/><path d=" M 273.984 170.397 L 273.984 181.372 L 202.439 181.372 L 202.439 170.397 L 273.984 170.397 Z " fill="rgb(255,255,255)"/><path d=" M 97.522 191.863 L 86.547 191.863 L 86.547 130.919 L 97.522 130.919 L 97.522 191.863 Z " fill="rgb(255,255,255)"/><path d=" M 273.984 171.232 L 263.008 171.232 L 263.008 130.919 L 273.984 130.919 L 273.984 171.232 Z " fill="rgb(255,255,255)"/><path d=" M 121.718 191.863 L 110.742 191.863 L 110.742 130.919 L 121.718 130.919 L 121.718 191.863 Z " fill="rgb(255,255,255)"/><path d=" M 140.306 148.203 L 133.105 156.684 L 172.274 191.521 L 189.831 191.521 L 140.306 148.203 Z " fill="rgb(255,255,255)"/><path d=" M 171.276 130.879 L 189.831 131.228 L 119.787 166.608 L 111.853 158.981 L 171.276 130.879 Z " fill="rgb(255,255,255)"/><path d=" M 213.415 191.863 L 202.439 191.863 L 202.439 130.919 L 213.415 130.919 L 213.415 191.863 Z " fill="rgb(255,255,255)"/><path d=" M 37.875 174.386 L 25.922 174.386 L 25.922 185.361 L 53.798 185.361 L 37.875 174.386 Z " fill="rgb(255,255,255)"/><path d=" M 155.665 148.486 L 189.831 131.228 L 171.276 130.879 L 145.426 143.104 L 155.665 148.486 Z " fill="rgb(255,255,255)"/><path d=" M 249.012 141.894 L 273.984 141.894 L 273.984 130.919 L 240.5 130.919 L 249.012 141.894 Z " fill="rgb(255,255,255)"/></g></g></svg>